<?xml version="1.0" encoding="utf-8"?>
<!-- Generator: Adobe Illustrator 27.1.1, SVG Export Plug-In . SVG Version: 6.00 Build 0)  -->
<svg version="1.1" xmlns="http://www.w3.org/2000/svg" xmlns:xlink="http://www.w3.org/1999/xlink" x="0px" y="0px"
	 viewBox="0 0 1000 1000" style="enable-background:new 0 0 1000 1000;" xml:space="preserve">
<style type="text/css">
	.st0{fill:#FFFFFF;stroke:#000000;stroke-miterlimit:10;}
	.st1{fill:#002E45;}
	.st2{fill:#008742;}
	.st3{fill:#92278F;}
	.st4{fill:#1E2358;stroke:#000000;stroke-miterlimit:10;}
	.st5{fill:#081619;stroke:#000000;stroke-miterlimit:10;}
	.st6{fill:#6B6C6F;}
	.st7{fill:#6B1C03;stroke:#000000;stroke-miterlimit:10;}
	.st8{fill:#4D4D4F;}
	.st9{fill:#EAC7AE;stroke:#000000;stroke-miterlimit:10;}
	.st10{fill:#50433A;}
	.st11{fill:#6458A6;stroke:#000000;stroke-miterlimit:10;}
	.st12{fill:#58595B;}
	.st13{fill:#4F4F51;}
	.st14{fill:#737577;}
	.st15{fill:#CBCCCE;}
	.st16{fill:#FFFFFF;}
	.st17{fill:#5C5D60;}
	.st18{fill:#5A5B5D;}
	.st19{fill:none;}
	.st20{fill:#EC008C;}
	.st21{font-family:'MarkerFelt-Wide';}
	.st22{font-size:353.5634px;}
	.st23{fill:#4378BC;stroke:#000000;stroke-miterlimit:10;}
</style>
<g id="circle">
</g>
<g id="background">
</g>
<g id="WORDS">
	<rect x="93.71" y="308.06" class="st19" width="2.66" height="0"/>
</g>
<g id="Layer_22">
</g>
<g id="Layer_21">
	<text transform="matrix(0.4772 0 0 1 39.5604 597.7389)" class="st20 st21 st22">TAKE A RISK</text>
	<path class="st4" d="M112.74,310.31c0.84,0.33,1.57,0.61,2.35,0.35c1.42-0.49,1.89-2.44,2.01-3.01
		c-0.38-8.35-0.54-15.32-0.62-20.48c-0.12-8.09-0.03-11.96,0.12-15.27c0.06-1.29,0.35-7.28,1.51-15.06
		c0.88-5.88,1.73-9.21,2.21-9.17c0.77,0.07-1.19,8.32,3.35,13.96c1.07,1.32,2.76,2.85,4.1,4.04c3.03,2.72,3.5,2.58,5.39,4.54
		c2.06,2.14,1.97,2.78,4.42,5.36c1.59,1.67,1.81,1.59,3.44,3.19c4.86,4.76,5.84,8.36,8.21,8.21c0.76-0.05,1.27-0.45,2.04-1.07
		c2.94-2.36,1.41-5.46,3.86-7.7c2.81-2.57,7.26-2.48,9.58-1.9c0.59,0.15,1.59,0.4,2.67,1.12c1.81,1.22,2.33,2.77,2.61,2.65
		c0.39-0.17,0.12-3.71-2.11-6.79c-2.19-3.02-6-5.24-5.88-5.15c0.65-0.78,1.42-1.96,1.17-3.16c-0.5-2.44-4.66-2.36-8.39-5.61
		c-2.03-1.77-2.93-3.66-4.14-6.22c-2.03-4.27-2.53-8.07-2.97-13.19c-1.2-14.13-0.18-17.73-2.19-18.68
		c-2.32-1.1-4.22,3.45-13.02,7.03c-3.05,1.24-2.41,0.53-11.94,3.53c-5.27,1.66-6,2.05-7.91,2.04c-5.49-0.03-7.29-3.27-10-2.06
		c-1.21,0.54-2.28,3.44-4.38,9.2c-1.89,5.19-2.85,7.78-2.92,8.04c-1.43,5.92-2.43,6.01-4.24,12.04c-2.84,9.46-2.96,17.82-2.99,20.85
		c-0.02,2.16,0.05,5.42,0.08,13.88c0.01,2.29,0.01,4.64-0.53,7.7c-0.31,1.78-0.5,2.07-0.61,3.35c-0.25,3.06,0.33,7.32,1.96,7.71
		c0.95,0.23,1.45-1.05,4.01-2.98c0.85-0.64,3.1-2.3,6.16-3.2c1.26-0.37,4.47-1.32,8.08-0.34
		C107.95,308.28,109.14,308.88,112.74,310.31z"/>
	<path class="st5" d="M85.78,320.33c0.85,0.62,2.06-0.02,6.71-2.32c3.8-1.88,7.52-3.95,11.38-5.71c4.25-1.94,6.43-2.54,6.49-3.92
		c0.01-0.2-0.06-0.45-0.06-0.48c-0.09-0.39-0.44-1.39-2.52-2.42c-2.34-1.16-4.57-1.22-4.78-1.22c-1.5-0.02-2.38,0.24-8.08,2.24
		c-3.97,1.39-4.4,1.57-5.12,2.09c-2.41,1.76-3.46,4.09-3.87,5.18C85.38,315.26,84.27,319.22,85.78,320.33z"/>
	<path class="st5" d="M151.77,285.68c-1.33-0.7-1.09-4.05-0.35-6.22c1.42-4.11,5.29-5.77,5.92-6.02c2.34-0.95,4.37-0.8,5.05-0.72
		c3.85,0.43,7.46,3.08,7.14,4.43c0,0-0.12,0.5-4.87,1.91l0,0c0,0-3.57,1.65-6.7,3.42C153.53,284.97,152.68,286.16,151.77,285.68z"/>
	<path class="st6" d="M101.43,236.76c-2.44-4.58-4.87-9.15-7.31-13.73c-1.65-6.37-3.31-12.74-4.96-19.11l-7.82-10.32l-17.8-4
		l-14.46-4.47l2.16-13.38c3.47,0.91,6.94,1.82,10.42,2.73c3.59,1.12,7.18,2.24,10.77,3.35c3.51,0.18,7.01,0.37,10.52,0.55
		c1.88-0.29,4.15-0.8,6.64-1.72c2-0.74,3.7-1.59,5.1-2.4c1.88,1.14,3.76,2.28,5.64,3.42c2.62-0.6,5.25-1.2,7.87-1.8
		c1.06-1.1,2.12-2.21,3.19-3.31c7.92,0.37,15.84,0.73,23.76,1.1c0,0,11.14-2.41,13.65-1.95c2.5,0.46,5.92-0.84,5.92-0.84l1.54,12.85
		c-2.22,1.54-4.13,2.57-5.49,3.23c-2.3,1.13-3.5,1.45-5.29,2.8c-1.54,1.16-2.63,1.97-3.19,3.31c-0.97,2.33,0.76,3.6,1.83,8.52
		c0.98,4.48-0.09,5.1,1.2,9.84c0.52,1.89,0.83,2.33,1.23,4.32c0.5,2.53,0.55,4.64,0.58,6.6c0.02,1.27,0.01,3-0.15,5.05
		c-2.64,1.13-5.27,2.25-7.91,3.38c-5.34,1.02-9.8,1.84-13.07,2.44c-8.45,1.55-10.68,1.9-12.49,2.16
		C108.4,236.12,104.2,236.53,101.43,236.76z"/>
	<path class="st7" d="M50.46,171.7c-0.55-0.65-1.28-0.31-2.25-0.8c-0.72-0.37-0.56-0.68-1.32-1.04c-0.6-0.29-1.03-0.24-1.77-0.31
		c-0.73-0.06-1.42-0.25-2.78-0.62c-1.98-0.54-1.88-0.78-3.2-1.02c-0.85-0.16-1.75-0.32-2.85-0.05c-0.72,0.18-1.63,0.4-2.12,1.17
		c-0.6,0.95-0.21,2.17,0.17,3.35c0.14,0.44,0.41,1.24,1.06,2.1c0.31,0.41,1.15,1.41,2.58,2.03c1.08,0.47,2.22,0.6,2.22,0.6
		c0,0.01-1.64-0.64-2.38,0.03c-0.31,0.28-0.38,0.7-0.39,0.82c-0.01,0.12-0.06,0.58,0.38,1.22c0.65,0.96,1.77,1.45,2.53,1.73
		c0.65,0.24,0.8,0.25,4.57,1.03c1.04,0.22,1.8,0.38,2.75,0.42c0.27,0.01,1.38,0.06,1.38,0.06c0,0,2.51-8.17,1.69-10.25
		C50.62,171.88,50.46,171.7,50.46,171.7z"/>
	<path class="st7" d="M154.95,170.42c0.37-1.02,1.84-1.21,3.56-1.73c1.46-0.45,2.8-1.22,4.21-1.83c4.82-2.06,4.95-2.23,5.68-2.19
		c1.9,0.1,4.09,1.36,4.97,3.48c0.99,2.4-0.01,5.22-1.6,6.61c-1.74,1.53-3.65,0.89-4.42,2.52c-0.25,0.54-0.06,0.65-0.5,3.24
		c-0.19,1.1-0.28,1.66-0.43,2c-0.44,1.07-1.59,2.79-3.16,2.75c-1.07-0.03-1.87-0.86-1.91-0.9c-0.57-0.61-0.33-0.95-0.85-1.31
		c-0.43-0.3-0.74-0.16-2.58-0.25c-0.09,0-0.25-0.01-0.45,0.05c-0.49,0.16-0.57,0.57-0.73,0.58c-0.64,0.02-1.35-6.54-1.46-7.6
		c-0.19-1.79-0.16-1.87-0.29-2.52c-0.08-0.42-0.18-0.86-0.19-1.51C154.81,171.44,154.8,170.84,154.95,170.42z"/>
	<path d="M114.33,168.25c1.39,0.02,2.93,3.27,2.93,3.27c0.16-0.25,0.71-0.59,0.46-0.75c0,0-0.32,0.49-0.46,0.75
		c-0.7,1.3-0.06,2.55-0.11,3.49c-0.09,1.77-2.61,2.19-7.2,5.11c-3.39,2.17-4.89,3.78-6.26,3.14c-0.95-0.44-1.1-1.63-2.08-1.75
		c-0.88-0.11-1.72,0.74-2.29,1.49c0,0,0,0,0,0c0-0.02-0.64-1.67-1.9-4.97c-0.28-1.27-0.57-2.51-0.65-2.5
		c-0.09,0.02-0.25,1.81,0.65,2.5c0.85,0.66,1.77-0.37,5.24-0.88c0.34-0.05,1.69-0.27,3.24-0.68c0.21-0.06,0.44-0.13,0.71-0.22
		c0,0,1.22-0.43,2.28-1.08C112.6,172.89,112.66,168.23,114.33,168.25z"/>
	<path class="st8" d="M78.86,178.17c0.57,0.35-0.54,1.91-0.45,4.6c0.1,3.02,1.61,4.19,0.8,5.61c-0.52,0.92-1.75,1.49-2.48,1.17
		c-0.4-0.18-0.52-0.57-1.05-3.12c-0.59-2.81-0.63-3.2-0.54-3.8c0.09-0.61,0.34-1.62,1.05-2.6
		C76.93,179.02,78.32,177.84,78.86,178.17z"/>
	<path class="st9" d="M91.14,155.15c0,0,3.53-2.24,5.77-3.27c2.71-1.25,9.15-3.35,12.1-0.64c2.53,2.32,1.41,7.2,2.96,7.48
		c1.06,0.19,1.94-2.01,2.73-1.75c1.06,0.35,0.54,4.69,0.34,6.22c-0.69,5.48-1.03,8.22-3.07,10.79c-0.7,0.89-2.99,3.53-6.94,4.53
		c-1.16,0.29-4.49,1.14-7.63-0.48c-3.73-1.93-4.87-6.15-5.66-9.06C89.97,162.33,91.14,155.15,91.14,155.15z"/>
	<path class="st10" d="M90.13,158.74c1.51-0.11,1.29-2.66,4.35-5.11c1.3-1.04,2.59-1.58,3.26-1.86c0.38-0.16,2.05-0.83,4.45-1.08
		c2.07-0.21,3.23-0.33,4.61,0.26c0.51,0.22,2.27,0.98,2.92,2.65c0.41,1.05,0,1.46,0.49,3.4c0.29,1.14,0.48,1.9,1.13,2.19
		c0.73,0.32,1.71-0.12,2.25-0.63c0.59-0.55,0.63-1.15,0.75-1.13c0.36,0.06-0.26,5.08,0,10.82c0.16,3.7,0.74,4.52,1.02,4.87
		c1.84,2.25,5.79,2.32,8.51,1.24c2.26-0.9,4.6-2.95,5.09-5.63c0.23-1.27-0.11-1.76-0.73-4.39c-1.31-5.6-0.8-7.95-2.23-12.76
		c-0.24-0.83-0.68-2.19-1.55-3.76c-0.27-0.49-0.82-1.44-1.68-2.52c-0.71-0.9-1.29-1.45-2.39-2.52c-1.52-1.46-2.29-2.2-3.17-2.78
		c-0.73-0.48-1.61-1.01-3.49-1.68c-2.34-0.84-2.65-1.16-3.27-1.4c-0.33-0.13-0.61-0.18-0.76-0.21c-2.51-0.51-4.08-0.61-4.08-0.61
		c-0.5-0.03-2.09-0.11-4.25,0.1c-2.35,0.23-3.84,0.37-5.63,1.11c-1,0.41-2.25,1.28-4.75,3.03c-1.94,1.35-2.18,1.66-2.36,1.97
		c-0.14,0.23-1.27,2.19-1.73,2.58c-0.01,0.01-0.36,0.31-0.36,0.31l0,0c-0.6,1.32-0.87,2.43-1,3.17c-0.45,2.45-0.24,5.18-0.24,5.18
		l0,0c0.12,0.24,0.29,0.55,0.5,0.92C86.45,155.63,88.39,158.86,90.13,158.74z"/>
	<path class="st11" d="M47.68,340.57c0.36,1.98,9.11,1.86,10.02,1.84c10.34-0.2,18.16-3.79,21.97-5.59
		c21.11-9.96,27.31-13.7,27.31-13.7c14.79-8.93,25.96-14.96,42.9-24.1c0,0,34.31-18.51,47.23-27.98c0.42-0.3,3.99-2.99,5.49-4.18
		c0,0,0,0,0,0c0,0,1.23-0.97,2.35-1.86c3.08-2.43,10.91-7.44,10.36-8.81c-0.55-1.36-9.95,1.21-9.95,1.21
		c0,0-98.03,51.9-125.25,65.48c-7.14,3.56-13.93,7.84-21.17,11.19C52.39,337.1,47.4,339.02,47.68,340.57z"/>
	<path class="st12" d="M130.49,178.82c-0.65,0.32-1.9,1.04-3.64,2.97c-2.43,2.69-3.59,5.3-3.84,5.86c-1.29,2.95-0.8,3.64-1.73,6.38
		c-1.38,4.06-3.84,6.64-5.69,8.57c-1.52,1.6-4.14,4.29-8.28,6.08c-5.2,2.25-9.4,1.61-9.56,2.79c-0.13,0.98,2.39,2.17,4.04,2.69
		c2.17,0.68,3.69,0.46,5.75,0.41c5.42-0.15,5.36,1.05,10.7,0.92c3.13-0.08,5.18-0.54,7.57-1.08c3.47-0.78,4.94-1.53,6.12-2.71
		c0.58-0.59,1.32-1.32,1.68-2.49c0.67-2.15-0.68-3.41-2.4-8.24c-0.96-2.69-1.33-4.53-1.77-6.69c-0.44-2.14-0.51-3.14-0.4-4.23
		c0.2-2,0.93-3.54,1.39-4.49c0.69-1.43,0.99-1.51,2.3-3.8c1.24-2.16,1.85-3.25,1.51-3.69C133.72,177.41,131.51,178.31,130.49,178.82
		z"/>
	<path class="st13" d="M123.01,181.38c-0.28-0.1-0.61,0.23-1.23,0.87c-2.56,2.64-2.77,2.92-2.96,3.21
		c-0.26,0.39-0.56,0.97-1.16,2.13c-1.4,2.71-1.55,3.37-2.46,4.59c-0.66,0.88-1.31,1.5-1.52,1.69c-0.06,0.05-0.49,0.46-1.04,0.88
		c-1.67,1.27-4.25,2.54-4.42,2.62c-5.79,2.82-7.01,3.31-7.62,3.54c-1.66,0.63-2.49,0.95-3.01,1.06c-0.73,0.15-1.05,0.14-1.13,0.35
		c-0.23,0.6,1.7,2.43,3.91,2.71c0.51,0.07,1.55,0.12,4.17-1.14c2.68-1.28,4.52-2.75,5.46-3.5c3.37-2.7,6.03-4.83,8.34-8.25
		c1.27-1.88,1.99-2.96,2.6-4.56c0.46-1.21,0.52-1.85,1.23-2.78c0.53-0.7,1.06-1.07,1.2-1.91
		C123.49,182.29,123.37,181.51,123.01,181.38z"/>
	<path class="st13" d="M139.9,203.42L139.9,203.42c-0.03,0.1-0.07,0.24-0.12,0.42c-0.16,0.52-1.47,4.82-4.49,8.62
		c-1.07,1.34-4.51,5.68-10.3,7.6c-3.26,1.08-8.39,1.33-18.64,1.84c-1.27,0.06-3.11,0.15-3.5,1.11c-0.55,1.37,1.9,4.33,4.78,5.04
		c1.85,0.45,3.91-0.02,5.44-0.37c2.02-0.46,3.51-1.16,3.98-0.57c0.4,0.5-0.36,1.37,0.12,2.23c0.32,0.59,1.02,0.82,1.76,0.97
		c2.7,0.56,5.28-0.07,5.86-0.22c2.82-0.72,4.76-1.22,6.29-2.94c0.91-1.03,1.16-1.91,2.62-3.03c1.14-0.88,2.23-1.29,2.45-1.37
		c2.62-0.96,4.26-0.13,4.92-1.11c0.26-0.39,0.14-1.01-0.12-2.23c-0.65-3.12-1.52-3.63-1.34-5.12c0.11-0.92,0.44-0.71,1.59-3.09
		c0.63-1.31,1.2-2.49,1.48-3.89c0.19-0.96,0.36-2.65-0.29-4.86"/>
	<path class="st14" d="M55.95,173.85c-0.11,0.22,0.38,0.43,0.46,0.93c0.07,0.4-0.15,0.76-0.42,1.18c-0.27,0.44-0.41,0.46-0.62,0.8
		c-0.31,0.51-0.34,1.02-0.36,1.38c-0.08,1.34,0.56,2.44,0.72,2.71c0.54,0.89,1.25,1.43,1.22,2.12c0,0.06-0.02,0.29-0.01,0.61
		c0.01,0.39,0.01,0.59,0.07,0.83c0.04,0.15,0.13,0.52,0.43,0.86c0.26,0.3,0.68,0.57,0.8,0.47c0.03-0.03,0.03-0.08,0-0.33
		c-0.05-0.45-0.08-0.68-0.11-0.8c-0.09-0.31-0.15-0.29-0.24-0.63c-0.01-0.04-0.07-0.24-0.1-0.52c-0.06-0.5,0.03-0.59-0.05-0.89
		c-0.05-0.19-0.1-0.17-0.31-0.54c-0.19-0.33-0.21-0.46-0.41-0.89c-0.29-0.64-0.33-0.57-0.46-0.9c-0.14-0.37-0.08-0.39-0.26-1.49
		c-0.09-0.54-0.15-0.75-0.17-1.18c-0.02-0.3-0.01-0.55,0.06-0.83c0.05-0.19,0.11-0.34,0.2-0.54c0.43-0.9,0.67-0.94,0.76-1.41
		c0.01-0.06,0.14-0.76-0.22-1.02c-0.19-0.14-0.46-0.11-0.55-0.1C56.23,173.71,56.01,173.73,55.95,173.85z"/>
	<path class="st14" d="M50.39,182.08c0.66,1.05,1.35,1.46,1.86,1.65c0.53,0.2,0.76,0.1,1.6,0.38c0.68,0.23,1.19,0.51,1.63,0.76
		c0.95,0.53,1,0.71,1.63,0.94c0.71,0.26,1.16,0.22,1.17,0.34c0.01,0.17-0.75,0.41-1.49,0.42c-0.27,0-0.52-0.03-1.01-0.11
		c-0.47-0.08-0.96-0.15-1.62-0.33c-0.97-0.26-1.46-0.39-1.68-0.73c-0.18-0.28-0.12-0.48-0.38-0.71c-0.23-0.21-0.38-0.14-0.86-0.34
		c-0.38-0.15-0.63-0.33-1-0.6c-0.53-0.38-0.63-0.57-0.68-0.67c-0.07-0.14-0.18-0.39-0.06-0.63c0.15-0.29,0.54-0.31,0.57-0.31"/>
	<path class="st14" d="M70.82,178.05L70.82,178.05L70.82,178.05c-0.21,0.18-0.49,0.46-0.76,0.86c-0.1,0.15-0.64,0.96-0.79,2.01
		c-0.15,1.03,0.2,1.33,0.39,2.73c0.21,1.59-0.17,1.76-0.08,4.26c0.07,1.92,0.31,2.35,0.48,2.59c0.68,0.92,2.03,1.16,2.3,0.73
		c0.15-0.24-0.12-0.53-0.49-1.79c-0.18-0.61-0.38-1.32-0.43-2.2c-0.04-0.78,0.09-0.78,0.08-1.87c-0.01-0.62-0.01-1.17-0.15-1.84
		c-0.26-1.26-0.65-1.29-0.64-2.03c0.02-1.09,0.87-2.15,0.85-2.11l0,0c0.23-0.52,0.47-1.04,0.7-1.56"/>
	<path class="st13" d="M49.07,185.13c0-0.01,0.02-0.01,0.62-0.05c0.77-0.05,1.16-0.08,1.29-0.08c0.76-0.04,1.28-0.04,2.09-0.06
		c2.33-0.05,2.16-0.09,2.41-0.06c0.86,0.13,1.55,0.44,2.53,0.87c0.76,0.33,0.76,0.4,1.25,0.58c0.98,0.37,1.78,0.42,2.44,0.47
		c2.23,0.16,3.34,0.24,3.67,0.31c1.84,0.37,3.66,1.17,4.18,1.41c0.02,0.01,0.03,0.01,0.04,0.02c0.52-0.06,1.2-0.11,2-0.1
		c2.18,0.03,5.12,0.54,5.13,1.12c0.02,0.67-3.88,2.18-7.71,1.51c-1.12-0.2-3.32-0.85-7.72-2.15l0,0
		C55.1,187.07,49.01,185.38,49.07,185.13z"/>
	<path class="st15" d="M129.03,191.63c1.25,5.74,1.87,8.62,2.18,9.35c1.52,3.57,2.37,3.82,2.28,5.64c0,0-0.04,0.81-1.56,5.08l0,0
		l0,0c-4.22,1.94-4.18,2.5-4.18,2.5c0.04,0.52,0.96,0.86,1.65,1.13c0.39,0.15,1.25,0.47,2.21,0.3c0.85-0.16,1.47-0.76,2.65-1.95
		c1.87-1.87,2.8-2.8,2.88-2.93c1.17-1.78,1.63-3.89,1.79-4.62c0.31-1.43,0.28-2.17,0.95-2.72c0.85-0.69,1.74-0.18,2.26-0.8
		c0.5-0.58,0.03-1.43-0.53-3.74c-0.61-2.46-0.91-3.75-0.47-5.18c0.27-0.88,0.49-0.73,0.94-1.97c0.38-1.05,1.04-2.87,0.33-3.86
		c-0.25-0.34-0.69-0.62-3.02-0.73c-4.23-0.2-4.33,0.64-8.48,0.87c-0.46,0.03-1.15,0.05-1.62,0.54
		C128.55,189.34,128.84,190.75,129.03,191.63z"/>
	<path class="st16" d="M142.06,187.72c-0.38,0.1-0.94,0.45-1.65,3.44c-0.53,2.23-0.78,4.57-0.93,7.49c-0.11,2.06-0.12,3.04-0.22,5
		c-0.05,1.1-0.09,1.75-0.34,2.64c-0.25,0.91-0.68,1.31-0.46,1.67c0.18,0.29,0.58,0.27,2.18,0.33c1.54,0.06,2.12,0.12,3.13-0.01
		c1.15-0.15,1.44-0.37,1.5-0.58c0.05-0.16-0.06-0.26-0.2-0.92c-0.16-0.75-0.15-1.22-0.19-1.81c-0.01-0.08-0.01-0.12-0.01-0.16
		c-0.07-0.98-0.07-2.24-0.16-3.02c-0.06-0.56-0.23-1.07-0.56-2.09c-0.6-1.85-0.87-1.88-1.28-3.3c-0.63-2.16-0.3-3.1-0.2-3.38
		c0.12-0.31,0.26-0.68,0.6-1.07c0.54-0.62,1.03-0.67,1.36-1.27c0.02-0.04,0.25-0.48,0.21-0.97
		C144.75,188.52,143.1,187.44,142.06,187.72z"/>
	<path class="st17" d="M110.87,182.93c0.21,0.12-0.4,1.69-0.93,2.82c-0.5,1.08-1.49,2.94-3.7,5.43c-2.05,2.33-3.2,3.62-5.29,4.7
		c-1.88,0.97-3.58,1.28-4.8,1.5c-1.46,0.27-2.46,0.24-4.44,0.23c-3-0.03-3.45-0.38-3.62-0.71c-0.24-0.45-0.2-1.3-0.97-2.04
		c0,0,0,0,0,0l0,0c0,0,1.16,0.59,2.28,0.76c0.67,0.1,0.84-0.02,2.07-0.11c1.39-0.1,1.88,0.01,2.65-0.02
		c1.56-0.06,2.68-0.63,4.4-1.45c1.77-0.84,2.91-1.71,4.34-2.8c1.15-0.88,2.92-2.24,4.8-4.36
		C109.69,184.61,110.63,182.8,110.87,182.93z"/>
	<path class="st18" d="M109.6,189.56c0.38,0.2-0.09,2.55-1.55,4.31c-1.58,1.89-4.01,2.74-4.27,2.38c-0.14-0.19,0.4-0.66,2.77-3.39
		C108.95,190.09,109.38,189.44,109.6,189.56z"/>
	<path class="st14" d="M147.12,179.37c-0.13-0.04-0.41,0.16-1.07,1.39c-0.77,1.21-1.14,2.28-1.34,3.04
		c-0.4,1.55-0.53,3.56-0.53,3.58l0,0c0,0,0.49,1.36,1.28,1.69c0.75,0.31,2.01-0.23,2.3-1.04c0.24-0.66-0.31-1.06-0.58-2.54
		c-0.09-0.51-0.09-1.02-0.09-2.03C147.1,180.72,147.4,179.46,147.12,179.37z"/>
	
		<ellipse transform="matrix(0.99 -0.1413 0.1413 0.99 -29.4189 17.0138)" class="st19" cx="105.11" cy="215.69" rx="154.13" ry="159.61"/>
</g>
<g id="snowpants">
</g>
<g id="boots">
</g>
<g id="jacket">
</g>
<g id="mitten">
</g>
<g id="mitten_00000048500081887052301460000001960003464139340212_">
</g>
<g id="neck_shadow">
</g>
<g id="face">
</g>
<g id="hair">
</g>
<g id="board">
</g>
<g id="shadow_on_jacket">
</g>
<g id="shadow">
</g>
<g id="shadow_00000108290032039347494640000015436431733562868122_">
</g>
<g id="shadow_00000153671324073715380120000011071779765541497521_">
</g>
<g id="shadow_00000139979588039114910350000016093346751103490742_">
</g>
<g id="shadow_00000123442452944736596290000013945152868091174553_">
</g>
<g id="speration">
</g>
<g id="LOGO_2">
</g>
</svg>
