<?xml version="1.0" encoding="utf-8"?>
<!-- Generator: Adobe Illustrator 27.1.1, SVG Export Plug-In . SVG Version: 6.00 Build 0)  -->
<svg version="1.1" xmlns="http://www.w3.org/2000/svg" xmlns:xlink="http://www.w3.org/1999/xlink" x="0px" y="0px"
	 viewBox="0 0 1000 1000" style="enable-background:new 0 0 1000 1000;" xml:space="preserve">
<style type="text/css">
	.st0{fill:#FFFFFF;stroke:#000000;stroke-miterlimit:10;}
	.st1{fill:#002E45;}
	.st2{fill:#008742;}
	.st3{fill:#92278F;}
	.st4{fill:#1E2358;stroke:#000000;stroke-miterlimit:10;}
	.st5{fill:#081619;stroke:#000000;stroke-miterlimit:10;}
	.st6{fill:#6B6C6F;}
	.st7{fill:#6B1C03;stroke:#000000;stroke-miterlimit:10;}
	.st8{fill:#4D4D4F;}
	.st9{fill:#EAC7AE;stroke:#000000;stroke-miterlimit:10;}
	.st10{fill:#50433A;}
	.st11{fill:#6458A6;stroke:#000000;stroke-miterlimit:10;}
	.st12{fill:#58595B;}
	.st13{fill:#4F4F51;}
	.st14{fill:#737577;}
	.st15{fill:#CBCCCE;}
	.st16{fill:#FFFFFF;}
	.st17{fill:#5C5D60;}
	.st18{fill:#5A5B5D;}
	.st19{fill:none;}
	.st20{fill:#4378BC;stroke:#000000;stroke-miterlimit:10;}
</style>
<g id="circle">
</g>
<g id="background">
</g>
<g id="WORDS">
	<ellipse class="st0" cx="501.33" cy="479.9" rx="333.27" ry="345.57"/>
	<g>
		<g>
			<path class="st3" d="M301.49,278.83c0.51,2.03-0.26,3.88-2.28,5.58c-2.65,2.24-4.09,3.69-4.36,4.29
				c-1.14,2.93-2.46,6.29-3.91,10.11c4.33,5.34,9.22,11.09,14.66,17.26c11.05,12.53,22.75,25.02,34.96,37.57
				c0.85,0.94,2.17,1.95,3.95,3.07c1.78,1.12,2.97,2.02,3.57,2.69c0.79,0.87,1.33,1.84,1.65,2.9c0.97,2.8,0.65,4.96-0.98,6.57
				c-1.41,1.39-3.39,2.06-5.97,2.08c-2.58,0.01-4.89-0.73-6.89-2.3c-1.08-0.82-1.89-2.2-2.4-4.16c-0.5-1.95-1.29-3.48-2.37-4.57
				c-12.95-12.45-24.11-23.5-33.46-33.17c-5.65-5.84-10.08-10.61-13.29-14.3c-0.05,0.05-0.46,1.11-1.19,3.18
				c-0.46,1.4-0.96,2.39-1.51,2.98c-0.8,0.85-1.86,1.28-3.21,1.28c-3.32,0.02-5.49,0.01-6.47-0.11c-1.97-0.23-3.61-0.96-4.92-2.21
				c-0.46-0.44-0.93-0.99-1.42-1.67c-0.73-1.03,1-7.07,6.08-17.81c5.49-11.58,8.86-17.77,9.06-18.97c0.41-0.85,0.6-2.12,0.6-3.8
				c0-1.68,0.42-3.01,1.26-3.98c1.2-1.27,3.75-1.74,7.6-1.3c4.31,0.54,7.45,2.25,9.5,5C300.56,276.1,301.13,277.38,301.49,278.83z"
				/>
			<path class="st3" d="M384.83,302.42c0.17,1.24-0.28,2.28-1.35,3.16c-0.1,0.06-1.13,0.7-3.07,1.97c2.24,3.4,5.89,7.16,10.75,11.43
				c2,0.89,3.6,2.6,4.86,5.1c1.98,3.96,1.66,6.6-0.95,8.03c-2.49,1.36-4.8,1.19-7.02-0.55c-0.75-0.6-1.55-1.55-2.4-2.83
				c-0.49-0.86-1.03-1.75-1.61-2.67c-0.82-0.46-4.59-4.32-11.62-11.35c-3.38,3.34-7.35,7.71-11.69,13.24
				c0.94,2.55,2.51,6.09,4.77,10.59c0.6,0.68,1.14,1.35,1.61,2.01c1.4,1.99,2.1,3.8,2.12,5.41c0.02,1.61-0.47,2.8-1.49,3.57
				c-1.14,0.87-2.76,0.93-4.89,0.2c-2.13-0.73-3.99-2.07-5.54-4.06c-1.39-1.78-2.15-3.77-2.25-6
				c-17.62-29.92-28.93-57.05-34.31-80.58c-0.7-0.84-1.33-1.71-1.91-2.63c-2.4-3.83-2.91-7.09-1.48-9.77
				c0.61-1.05,1.63-2.05,3.05-2.96c2.71-1.74,5.28-2.64,7.66-2.72c3.13,0,5.45,1.47,7,4.33c1.42,2.62,2.13,5.3,2.15,8.02
				c8.63,12.73,19.72,26.7,32.56,42.45c0.27-0.26,1.12-1.27,2.58-3c0.85-1.09,1.58-1.79,2.16-2.11c0.69-0.37,1.37-0.42,2.04-0.16
				c2.95,1.2,5.16,3.42,6.71,6.58C384.11,298.83,384.63,300.6,384.83,302.42z M361.74,303.81c-3.79-4.34-10.78-12.84-21.28-25.29
				c3.28,14.58,7.82,26.09,12.74,34.87C355.96,310.13,358.8,306.94,361.74,303.81z"/>
			<path class="st3" d="M435.12,296.47c0.41,0.92,0.75,1.9,1.03,2.95c0.98,3.66,1.07,7.29,0.39,10.87c-0.68,3.58-1.85,5.64-3.61,6.2
				c-0.56,0.18-1.14,0.17-1.76,0c-2.02-0.57-3.96-2.67-5.82-6.33c-2.11-4.24-3.86-6.83-5.25-7.77c-6.51-4.39-13.33-8.51-20.44-12.35
				c2.35,4.89,4.69,9.78,7.03,14.67c0.52,1.15,1.43,2.66,2.69,4.52c1.26,1.87,2.09,3.31,2.5,4.31c0.71,1.76,0.91,3.58,0.63,5.46
				c-0.28,1.88-1.04,3.1-2.31,3.66c-1.41,0.62-3.31,0.35-5.77-0.78c-2.71-1.31-4.66-3.12-5.78-5.49c-0.42-0.9-0.63-2-0.6-3.32
				c0.03-1.32-0.16-2.43-0.57-3.33c-11.74-23.91-23.39-47.87-34.93-71.88c-0.54-1.04-1.44-2.16-2.72-3.35
				c-1.28-1.19-2.09-2.15-2.42-2.89c-0.69-1.57-0.6-3.72,0.33-6.47c0.23-0.61,1.22-1.33,2.99-2.15c6.06-2.79,10.6-2.65,13.45,0.17
				c0.76,0.76,1.29,1.57,1.61,2.41c0.32,0.85,0.45,2.14,0.41,3.86c-0.03,1.73,0.15,3.1,0.54,4.11c3.95,10.29,7.96,20.55,12.03,30.8
				c-0.05-14.6,0.73-29.37,2.37-44.23c-0.03-2.48-0.08-4.95-0.14-7.41c0.18-2.64,1.46-4.37,3.8-5.14c2.26-0.75,4.86-0.48,7.72,0.82
				c3.22,1.48,4.94,3.61,5.28,6.34c0.22,2.01-0.08,3.51-0.92,4.51c-1.04,1.35-1.59,2.38-1.69,3.07
				c-2.57,17.44-3.92,34.79-4.09,51.93c9.25,4.9,18.02,10.27,26.28,16.05c1.42,0.79,2.88,1.63,4.37,2.51
				C433.27,293.67,434.38,294.9,435.12,296.47z"/>
			<path class="st3" d="M456.62,210.14c-1.42,1.92-3.35,3.05-5.82,3.43c-1.03,0.16-2.25,0.21-3.66,0.17
				c-1.88,1.14-3.54,2.25-4.98,3.34c-3.52,2.58-5.71,4.7-6.67,6.28c1.26,9.33,3.25,19.89,5.87,31.7c0.29-0.43,1.12-0.98,2.49-1.62
				c0.38-2.01,1.46-3.19,3.23-3.53c1.76-0.33,4.02,0.55,6.69,2.67c2.67,2.12,4.12,4.42,4.43,6.84c0.08,0.63,0.08,1.27-0.01,1.92
				c-0.34,2.79-1.15,4.66-2.47,5.61c-0.79,0.59-2.01,0.91-3.69,0.99c-1.68,0.08-2.72,0.35-3.11,0.79c-1.13,1.23-2.49,2.7-4.06,4.42
				c1.57,7.97,2.77,13.07,3.54,15.3c2.01-1.35,3.66-2.78,4.92-4.31c0.16-0.67,0.32-1.3,0.5-1.88c0.37-1.08,1.27-1.66,2.7-1.72
				c1.53-0.08,3.32,1.09,5.28,3.53c1.96,2.44,3.09,5.06,3.45,7.84c0.32,2.42-0.03,4.29-1.01,5.62c-0.99,1.34-2.82,2.03-5.56,2.15
				c-1.98,2.51-3.88,5.04-5.71,7.59c-0.23,0.33-0.68,1.34-1.31,3.05c-0.46,1.3-0.97,2.02-1.53,2.15c-0.19,0.04-0.41,0.05-0.66,0.01
				c-2.8-0.83-5.93-3.9-9.54-9.2c-0.26-0.4-0.47-0.9-0.63-1.51c-0.07-0.26-0.25-2.08-0.51-5.47c-6.95-25.33-13.75-52.49-19.77-81.61
				c-0.68-0.76-1.12-1.57-1.32-2.46c-0.66-2.9,1.06-5.33,5.23-7.16c0.88-0.39,2.12-0.36,3.69,0.12c1.04,0.41,2.03,0.8,2.97,1.14
				c3.92-2.61,7.93-5.14,12.01-7.6c0.28-0.14,1.03-0.82,2.28-2.04c0.85-0.87,1.89-1.41,3.13-1.6c0.58-0.09,1.28-0.11,2.11-0.05
				c1.64,0.12,3.4,1.44,5.22,3.97c1.82,2.53,2.82,5.02,3.06,7.45C457.57,208.01,457.3,209.23,456.62,210.14z"/>
			<path class="st3" d="M534.32,277.43c-0.57,1.1-1.52,1.69-2.84,1.78c-0.11-0.01-1.28-0.09-3.5-0.18
				c-0.19,4.07,0.52,9.24,1.87,15.53c1.05,1.88,1.33,4.2,0.89,6.97c-0.7,4.37-2.45,6.33-5.27,5.97c-2.69-0.34-4.38-1.83-5.11-4.53
				c-0.24-0.93-0.33-2.16-0.26-3.7c0.11-0.99,0.19-2.02,0.26-3.1c-0.37-0.85-1.11-6.19-2.58-15.99c-4.48,0.73-9.97,1.94-16.34,3.84
				c-0.7,2.61-1.46,6.39-2.24,11.35c0.09,0.9,0.12,1.76,0.11,2.57c-0.04,2.44-0.5,4.31-1.38,5.62c-0.88,1.31-1.9,1.97-3.1,1.99
				c-1.34,0.02-2.59-0.89-3.8-2.75c-1.21-1.85-1.88-4.04-1.96-6.56c-0.07-2.25,0.45-4.31,1.59-6.15
				c3.11-34.5,9.51-63.05,18.54-85.23c-0.07-1.09-0.07-2.17,0.01-3.25c0.3-4.5,1.73-7.44,4.33-8.77c1.06-0.49,2.4-0.7,4.01-0.61
				c3.07,0.18,5.56,0.96,7.45,2.28c2.42,1.83,3.39,4.37,2.98,7.6c-0.37,2.96-1.34,5.54-2.86,7.76c-0.5,15.36,0.2,33.17,1.25,53.44
				c0.35-0.05,1.58-0.38,3.7-0.94c1.28-0.39,2.24-0.54,2.87-0.45c0.75,0.1,1.31,0.45,1.68,1.05c1.61,2.69,2.08,5.78,1.49,9.25
				C535.8,274.09,535.19,275.83,534.32,277.43z M515.67,265.09c-0.48-5.73-1.1-16.71-2.19-32.95c-5.65,13.72-8.57,25.68-9.71,35.67
				C507.7,266.81,511.66,265.9,515.67,265.09z"/>
			<path class="st3" d="M594.63,314.9c-0.19,0.51-0.39,0.97-0.58,1.37c-1.19,2.44-2.97,4.11-5.31,5.08c-2.34,0.96-4.32,1.1-6,0.39
				c-1.02-0.43-1.68-1.15-1.99-2.16c-0.24-0.68-0.22-1.82,0.05-3.42c0.27-1.59,0.29-2.73,0.08-3.4c-2.57-8.21-5.64-16.42-9.23-24.55
				c-1.08,4.01-2.17,8.02-3.26,12.03c-0.15,0.62-0.19,1.98-0.12,4.09c0.06,2.11-0.14,3.8-0.58,5.08c-0.64,1.88-1.89,3.42-3.71,4.64
				c-1.12,0.78-2.26,0.99-3.45,0.63c-1.69-0.51-3.01-1.83-4-3.98c-1.13-2.19-1.52-4.66-1.11-7.45c0.09-0.53,0.19-0.98,0.29-1.32
				c0.33-1.22,0.96-2.2,1.88-2.93c0.92-0.73,1.5-1.49,1.72-2.27c6.3-24.95,12.65-49.88,19.04-74.81c0.27-1.14,0.36-2.73,0.24-4.77
				c-0.12-2.04-0.06-3.49,0.2-4.36c0.67-2.25,2.38-3.77,5.18-4.5c2.32-0.67,4.51-0.71,6.53-0.12c1.32,0.39,2.39,0.97,3.2,1.74
				c0.81,0.77,1.2,1.7,1.2,2.78c0,1.09,0.23,1.71,0.71,1.86c0.04,0.11,2.44-0.19,7.28-0.74c5.63-0.56,10.32-0.08,13.94,1.33
				c5.26,2.04,8.46,6.05,9.43,11.8c0.27,1.6-0.14,3.49-1.2,5.69c-2.85,5.96-9.65,13.09-19.45,22.07
				c-9.27,8.43-17.21,15.12-24.16,19.92c4.3,10.03,7.87,20.14,10.72,30.25c0.01,0.1,0.78,1.61,2.21,4.55
				C595.19,311.07,595.27,312.91,594.63,314.9z M606.67,228.81c-1.43-0.53-4.45,0.38-8.89,2.86c-0.89,0.46-4.42,2.53-10.27,6.45
				c-2.72,7.61-5.41,15.24-8.06,22.88c5.55-4.7,11.23-10,17.03-15.94c5.81-5.93,9.52-10.28,10.76-13.29
				C607.9,230.19,607.71,229.2,606.67,228.81z"/>
			<path class="st3" d="M603.67,328.34c-1.5,1.75-3.15,2.12-4.99,1.15c-0.51-0.27-1.03-0.64-1.54-1.11
				c-2.97-2.86-4.11-5.84-3.31-9.06c0.14-0.63,0.35-1.23,0.63-1.8c0.83-1.7,2.19-3.16,4.11-4.33c5.9-12.19,17.9-37.08,36.52-74.41
				c0.61-1.01,1.04-2.33,1.26-3.98c0.22-1.65,0.5-2.79,0.84-3.43c0.75-1.44,2.3-2.6,4.67-3.45c1.65-0.6,3.44-0.41,5.35,0.56
				c2.17,1.11,4.08,2.98,5.69,5.6c1.88,3.18,2.06,5.94,0.65,8.25c-0.33,0.54-2.26,2.25-5.73,5.19
				c-13.67,23.71-27.11,47.55-40.29,71.52c-0.53,0.94-1,2.26-1.42,3.93c-0.42,1.67-0.89,2.94-1.38,3.8
				C604.42,327.31,604.06,327.84,603.67,328.34z"/>
			<path class="st3" d="M648.04,332.5c-4.51,5.41-9.48,9.3-14.74,11.9c-5.27,2.59-9.22,2.92-12.1,0.87
				c-5.79-4.11-6.69-12.09-3.14-24.72c-1.04-5.79-0.95-10.03,0.62-12.67c0.78-1.32,1.93-2.12,3.46-2.38
				c3.01-0.55,5.37-0.29,7.01,0.72c3.59,2.21,3.73,7.08,0.36,14.37c-0.68,2.15-1.36,4.3-2.03,6.47c-0.67,2.16-0.54,3.56,0.4,4.21
				c2.51,1.74,6.01-0.39,10.56-6.46c4.06-5.42,6.19-9.51,6.31-12.31c0.02-1.2-0.99-4.49-3.32-9.84c-1.86-4.27-2.2-9.59-1.04-16.08
				c1.08-5.9,3.12-11.46,6.31-16.6c5.17-8.27,11.41-14.66,19.01-18.86c8.08-4.53,15.03-4.86,20.34-1.14
				c6.17,4.33,8.32,10.54,6.34,18.15c-1.16,4.82-3.84,9.84-7.94,15.12c-1.62,3.1-3.35,5.71-5.15,7.84
				c-1.17,1.38-2.26,2.41-3.27,3.11c-2.93,1.94-5.49,2.04-7.76,0.31c-1.7-1.3-2.59-3.3-2.69-6.06c-0.15-3.01,0.83-6.36,3-10.02
				c0.7-1.27,1.75-2.3,3.16-3.07c1.4-0.77,2.17-1.22,2.28-1.37c0.11-0.14,0.16-0.33,0.16-0.55c0.33-0.32,0.63-0.66,0.91-1.01
				c1.65-2.15,1.43-3.88-0.7-5.15c-2.07-1.23-4.82-0.65-8.17,1.78c-2.92,2.06-5.55,4.92-7.94,8.54c-4.26,6.4-4.72,13.4-2,21.01
				c2.16,6.01,2.77,11.02,2.11,14.96C657.42,319.23,653.88,325.5,648.04,332.5z"/>
			<path class="st3" d="M676.91,372.29c-0.68,0.75-1.44,1.45-2.29,2.12c-2.98,2.35-6.31,3.83-9.92,4.56
				c-3.62,0.73-6.02,0.42-7.29-1.02c-0.4-0.45-0.65-1.01-0.75-1.66c-0.33-2.13,0.79-4.77,3.38-7.96c3.02-3.64,4.68-6.31,4.96-7.97
				c1.3-7.83,2.24-15.82,2.81-23.93c-3.52,4.13-7.04,8.25-10.57,12.36c-0.84,0.95-1.85,2.38-3.04,4.3
				c-1.19,1.92-2.18,3.26-2.93,4.03c-1.32,1.36-2.91,2.27-4.76,2.77c-1.84,0.5-3.27,0.28-4.3-0.66c-1.15-1.04-1.67-2.9-1.64-5.61
				c0.1-3.02,0.96-5.53,2.67-7.51c0.65-0.75,1.58-1.39,2.79-1.89c1.21-0.51,2.15-1.12,2.81-1.87
				c17.08-20.43,34.25-40.79,51.51-61.08c0.73-0.91,1.39-2.2,1.95-3.85c0.56-1.66,1.11-2.79,1.66-3.39c1.15-1.27,3.17-2.06,6.07-2.3
				c0.65-0.03,1.73,0.59,3.21,1.9c5.08,4.49,6.88,8.78,5.48,12.55c-0.38,1.01-0.9,1.83-1.55,2.45c-0.65,0.63-1.78,1.27-3.39,1.91
				c-1.61,0.65-2.79,1.37-3.56,2.13c-7.82,7.76-15.6,15.57-23.33,23.42c13.42-5.86,27.39-10.96,41.86-15.2c2.28-1,4.55-2,6.81-3.02
				c2.53-0.85,4.68-0.32,6.41,1.61c1.67,1.87,2.56,4.45,2.6,7.7c0.03,3.65-1.2,6.14-3.58,7.5c-1.77,0.98-3.3,1.26-4.6,0.85
				c-1.71-0.47-2.9-0.61-3.59-0.44c-17.32,4.26-33.97,9.77-49.84,16.39c-0.62,10.57-1.85,20.94-3.66,31.03
				c-0.12,1.66-0.27,3.37-0.44,5.14C678.71,369.43,678.04,370.97,676.91,372.29z"/>
		</g>
	</g>
	<path class="st4" d="M488.53,709.5c1.72,0.98,3.24,1.82,5.02,1.48c3.25-0.63,4.88-4.7,5.32-5.91c1.77-18.22,3.58-33.39,5.02-44.6
		c2.26-17.58,3.66-25.94,5.02-33.08c0.53-2.79,3.02-15.68,7.97-32.19c3.75-12.49,6.63-19.44,7.68-19.2
		c1.66,0.39-5.19,17.67,2.95,31.31c1.91,3.2,5.14,7.03,7.68,10.04c5.76,6.83,6.83,6.69,10.34,11.52c3.83,5.27,3.43,6.64,7.97,13
		c2.94,4.12,3.45,4.01,6.5,7.97c9.11,11.83,10.12,19.93,15.35,20.35c1.67,0.14,2.9-0.59,4.78-1.69c7.14-4.21,4.77-11.41,10.8-15.51
		c6.92-4.7,16.59-3.13,21.47-1.15c1.24,0.5,3.34,1.35,5.47,3.27c3.57,3.21,4.23,6.73,4.86,6.56c0.91-0.24,1.41-8.02-2.48-15.37
		c-3.82-7.23-11.45-13.23-11.22-13c1.67-1.49,3.71-3.81,3.54-6.5c-0.34-5.46-9.43-6.57-16.54-14.77c-3.88-4.48-5.24-8.85-7.09-14.77
		c-3.09-9.9-3.01-18.28-2.36-29.54c1.77-31.02,5.12-38.52,1.03-41.2c-4.72-3.1-10.27,6.18-30.57,11.22
		c-7.04,1.75-5.42,0.4-27.13,3.96c-12,1.97-13.72,2.58-17.88,1.97c-11.96-1.76-14.87-9.35-21.15-7.55
		c-2.81,0.8-6.04,6.75-12.41,18.61c-5.73,10.68-8.64,16-8.86,16.54c-4.96,12.39-7.16,12.28-13,24.81c-9.14,19.64-12,37.73-13,44.3
		c-0.71,4.67-1.57,11.77-4.14,30.13c-0.69,4.96-1.43,10.08-3.54,16.54c-1.23,3.77-1.73,4.33-2.36,7.09
		c-1.5,6.55-1.55,15.97,1.88,17.34c2,0.8,3.48-1.83,9.68-5.21c2.06-1.12,7.48-4.02,14.43-5.04c2.86-0.42,10.16-1.49,17.72,1.77
		C478.72,703.62,481.12,705.28,488.53,709.5z"/>
	<path class="st5" d="M426.65,722.88c1.67,1.62,4.5,0.6,15.36-2.95c8.88-2.91,17.62-6.24,26.58-8.86c9.86-2.88,14.81-3.52,15.36-6.5
		c0.08-0.43,0.01-1,0.01-1.06c-0.08-0.87-0.52-3.15-4.73-6.03c-4.73-3.24-9.58-4.06-10.04-4.14c-3.27-0.5-5.27-0.21-18.31,2.36
		c-9.09,1.79-10.08,2.04-11.81,2.95c-5.79,3.07-8.82,7.79-10.04,10.04C427.34,711.77,423.69,720.01,426.65,722.88z"/>
	<path class="st5" d="M581.27,668.15c-2.69-1.94-1.11-9.13,1.18-13.59c4.37-8.48,13.33-10.87,14.77-11.22
		c5.39-1.34,9.77-0.37,11.22,0c8.25,2.12,15.3,8.98,14.18,11.81c0,0-0.41,1.04-11.2,2.63l0,0c0,0-8.29,2.48-15.67,5.33
		C585.32,667.16,583.11,669.48,581.27,668.15z"/>
	<path class="st6" d="M486.75,546.46c-3.89-10.68-7.78-21.36-11.67-32.05c-1.62-14.33-3.25-28.65-4.87-42.98l-13.83-24.81
		l-37.56-14.18l-30.13-14.18l8.86-28.35c7.29,3.05,14.57,6.1,21.86,9.16c7.48,3.54,14.95,7.07,22.43,10.61
		c7.59,1.49,15.17,2.97,22.76,4.46c4.18-0.04,9.3-0.45,15.01-1.69c4.58-0.99,8.56-2.31,11.87-3.63c3.74,3.05,7.48,6.1,11.22,9.16
		c5.91-0.49,11.81-0.98,17.72-1.48c2.66-2.07,5.32-4.14,7.97-6.2c17.15,3.25,34.3,6.5,51.46,9.75c0,0,25.04-1.77,30.36,0
		c5.32,1.77,13.16,0,13.16,0l-0.64,28.35c-5.31,2.65-9.81,4.3-12.97,5.32c-5.36,1.73-8.07,2.06-12.41,4.43
		c-3.72,2.03-6.34,3.46-7.97,6.2c-2.84,4.75,0.53,8.04,1.33,19.05c0.73,10.03-1.79,11.02-0.44,21.71c0.54,4.26,1.09,5.31,1.33,9.75
		c0.31,5.65-0.25,10.23-0.78,14.49c-0.35,2.77-0.92,6.5-1.9,10.91c-6.1,1.63-12.19,3.25-18.29,4.88
		c-11.96,0.55-21.94,0.96-29.25,1.24c-18.9,0.74-23.87,0.81-27.9,0.82C502.14,547.24,492.87,546.82,486.75,546.46z"/>
	<path class="st7" d="M395.89,389.59c-1.01-1.57-2.7-1.07-4.65-2.44c-1.46-1.02-1.01-1.64-2.55-2.66c-1.23-0.81-2.17-0.85-3.77-1.22
		c-1.58-0.37-3.01-0.98-5.87-2.22c-4.14-1.78-3.86-2.27-6.65-3.21c-1.8-0.61-3.72-1.24-6.2-1c-1.62,0.16-3.68,0.36-4.98,1.88
		c-1.61,1.88-1.13,4.65-0.66,7.31c0.18,1,0.51,2.81,1.66,4.87c0.54,0.97,2.06,3.42,4.98,5.21c2.21,1.35,4.66,1.98,4.65,1.99
		c0,0.01-3.37-1.9-5.21-0.66c-0.76,0.51-1.04,1.41-1.11,1.66c-0.07,0.25-0.3,1.24,0.44,2.77c1.11,2.28,3.41,3.69,4.98,4.54
		c1.35,0.73,1.66,0.78,9.64,3.66c2.21,0.8,3.81,1.38,5.87,1.77c0.58,0.11,2.99,0.55,2.99,0.55c0,0,8.01-16.94,6.87-21.71
		C396.18,390.03,395.89,389.59,395.89,389.59z"/>
	<path class="st7" d="M624.06,419.16c1.13-2.1,4.39-2.05,8.31-2.66c3.33-0.51,6.49-1.79,9.75-2.66c11.14-2.98,11.48-3.3,13.07-2.99
		c4.1,0.8,8.5,4.22,9.75,9.08c1.41,5.52-1.65,11.31-5.54,13.85c-4.26,2.77-8.24,0.8-10.41,4.1c-0.72,1.1-0.33,1.38-2.1,6.87
		c-0.76,2.34-1.14,3.5-1.55,4.21c-1.28,2.18-4.34,5.56-7.75,4.98c-2.32-0.39-3.8-2.44-3.88-2.55c-1.05-1.49-0.43-2.16-1.44-3.1
		c-0.84-0.78-1.56-0.57-5.54-1.33c-0.2-0.04-0.55-0.11-0.99-0.03c-1.12,0.19-1.43,1.07-1.78,1.02c-1.39-0.16-0.9-14.61-0.82-16.94
		c0.14-3.94,0.22-4.11,0.15-5.54c-0.05-0.95-0.13-1.93,0.05-3.33C623.44,421.33,623.61,420.01,624.06,419.16z"/>
	<path d="M536.18,401.87c3.02,0.47,5.37,7.99,5.37,7.99c0.42-0.49,1.72-1.07,1.23-1.49c0,0-0.84,0.97-1.23,1.49
		c-1.92,2.6-0.93,5.51-1.33,7.53c-0.75,3.81-6.38,3.93-17.28,8.86c-8.07,3.65-11.83,6.68-14.62,4.87c-1.94-1.25-1.89-3.87-3.99-4.43
		c-1.89-0.51-3.97,1.06-5.46,2.51c0,0,0,0,0,0c0-0.04-0.87-3.83-2.6-11.37c-0.21-2.85-0.46-5.62-0.63-5.62
		c-0.21,0.01-1.11,3.84,0.63,5.62c1.66,1.69,3.97-0.25,11.69-0.29c0.75,0,3.77-0.06,7.27-0.48c0.48-0.06,1-0.14,1.61-0.26
		c0,0,2.79-0.56,5.31-1.64C530.97,411.39,532.55,401.31,536.18,401.87z"/>
	<path class="st8" d="M455.79,412.42c1.14,0.94-1.77,3.98-2.41,9.85c-0.71,6.58,2.21,9.58,0,12.41c-1.43,1.83-4.29,2.68-5.76,1.77
		c-0.81-0.5-0.95-1.39-1.33-7.09c-0.42-6.28-0.38-7.14,0-8.42c0.39-1.3,1.24-3.41,3.1-5.32
		C451.32,413.66,454.7,411.53,455.79,412.42z"/>
	<path class="st9" d="M489.71,366.29c0,0,8.4-3.77,13.59-5.32c6.29-1.88,20.99-4.42,26.58,2.36c4.8,5.83,0.84,16.04,4.14,17.13
		c2.25,0.74,4.86-3.76,6.5-2.95c2.2,1.08-0.29,10.34-1.18,13.59c-3.21,11.67-4.81,17.51-10.04,22.45c-1.81,1.7-7.61,6.73-16.54,7.68
		c-2.61,0.28-10.15,1.08-16.48-3.4c-7.54-5.33-8.71-14.85-9.51-21.41C484.92,381.5,489.71,366.29,489.71,366.29z"/>
	<path class="st10" d="M486.38,373.75c3.33,0.23,3.65-5.38,11.08-9.75c3.15-1.85,6.14-2.63,7.68-3.03
		c0.88-0.23,4.73-1.17,10.04-0.96c4.57,0.18,7.14,0.28,9.97,1.99c1.05,0.64,4.64,2.82,5.54,6.65c0.56,2.39-0.46,3.17,0,7.53
		c0.27,2.55,0.45,4.27,1.77,5.1c1.5,0.93,3.75,0.27,5.09-0.66c1.45-1.02,1.73-2.3,1.99-2.22c0.76,0.23-2.14,10.94-3.37,23.46
		c-0.79,8.07,0.2,10.02,0.71,10.87c3.3,5.44,11.9,6.82,18.16,5.32c5.2-1.25,10.94-4.98,12.85-10.63c0.9-2.67,0.3-3.84-0.22-9.75
		c-1.11-12.55,0.72-17.48-0.89-28.35c-0.28-1.87-0.81-4.95-2.22-8.64c-0.44-1.15-1.35-3.37-2.88-5.98c-1.27-2.17-2.35-3.55-4.43-6.2
		c-2.87-3.65-4.3-5.47-6.05-7.01c-1.44-1.27-3.2-2.69-7.09-4.73c-4.85-2.54-5.42-3.35-6.68-4.04c-0.69-0.38-1.26-0.57-1.59-0.69
		c-5.32-1.89-8.71-2.58-8.71-2.58c-1.08-0.22-4.52-0.89-9.3-1.11c-5.2-0.24-8.47-0.38-12.63,0.66c-2.3,0.58-5.3,2.09-11.3,5.09
		c-4.64,2.33-5.27,2.94-5.76,3.54c-0.37,0.45-3.45,4.35-4.58,5.05c-0.02,0.01-0.89,0.56-0.89,0.56l0,0c-1.71,2.68-2.64,5-3.18,6.57
		c-1.75,5.18-2.13,11.15-2.14,11.15l0,0c0.19,0.55,0.45,1.29,0.81,2.14C479.35,365.87,482.57,373.49,486.38,373.75z"/>
	<path class="st11" d="M337.3,754.99c0.18,4.41,19.29,6.85,21.27,7.09c22.61,2.77,40.75-2.6,49.62-5.32
		c49.12-15.07,63.8-21.27,63.8-21.27c35.02-14.79,61.24-24.41,101.01-38.99c0,0,80.55-29.53,111.65-46.08
		c1-0.53,9.62-5.26,13.27-7.37c0,0,0,0,0,0c0,0,2.98-1.73,5.7-3.3c7.46-4.31,26.11-12.76,25.33-15.9
		c-0.77-3.13-22.07-0.46-22.07-0.46c-0.01,0-229.84,82.21-293.38,103.25c-16.67,5.52-32.79,12.69-49.62,17.72
		C348.65,748.91,337.16,751.54,337.3,754.99z"/>
	<path class="st12" d="M568.13,429.8c-1.51,0.5-4.46,1.67-8.86,5.32c-6.13,5.09-9.48,10.38-10.19,11.52
		c-3.72,6-2.88,7.64-5.76,13.29c-4.27,8.38-10.45,13.22-15.06,16.84c-3.82,2.99-10.36,8.03-19.94,10.63
		c-12.04,3.28-20.99,0.57-21.71,3.1c-0.6,2.09,4.53,5.45,7.97,7.09c4.52,2.15,7.9,2.15,12.41,2.66c11.86,1.35,11.36,3.95,23.04,5.32
		c6.84,0.8,11.46,0.43,16.84,0c7.81-0.63,11.25-1.8,14.18-3.99c1.45-1.09,3.28-2.46,4.43-4.87c2.12-4.46-0.42-7.6-2.66-18.61
		c-1.25-6.14-1.49-10.24-1.77-15.06c-0.28-4.79-0.14-6.96,0.44-9.3c1.06-4.28,3.12-7.38,4.43-9.3c1.96-2.88,2.62-2.96,6.2-7.53
		c3.37-4.3,5.05-6.48,4.43-7.53C575.6,427.74,570.5,429,568.13,429.8z"/>
	<path class="st13" d="M551.03,433.05c-0.58-0.3-1.4,0.32-2.94,1.5c-6.41,4.93-6.94,5.47-7.46,6.05c-0.68,0.76-1.52,1.93-3.18,4.26
		c-3.9,5.45-4.42,6.84-6.8,9.2c-1.71,1.7-3.32,2.85-3.83,3.21c-0.14,0.1-1.22,0.85-2.54,1.58c-4.04,2.25-10.06,4.2-10.45,4.32
		c-13.51,4.33-16.32,5-17.72,5.32c-3.82,0.86-5.73,1.29-6.89,1.36c-1.64,0.1-2.32-0.02-2.56,0.41c-0.69,1.24,2.95,5.79,7.68,7.09
		c1.09,0.3,3.34,0.73,9.45-1.18c6.24-1.95,10.72-4.57,13-5.91c8.2-4.81,14.65-8.6,20.75-15.32c3.35-3.69,5.27-5.81,7.09-9.08
		c1.38-2.48,1.71-3.85,3.54-5.65c1.38-1.36,2.64-2,3.21-3.77C551.78,435.16,551.78,433.43,551.03,433.05z"/>
	<path class="st13" d="M580.97,486.06L580.97,486.06c-0.09,0.2-0.22,0.5-0.39,0.86c-0.5,1.09-4.69,9.99-12.46,17.3
		c-2.75,2.58-11.61,10.92-24.81,13.29c-7.44,1.33-18.7,0.3-41.2-1.77c-2.8-0.26-6.83-0.65-7.97,1.33c-1.63,2.81,2.8,9.99,8.86,12.41
		c3.89,1.56,8.52,1.17,11.96,0.89c4.55-0.38,8-1.42,8.86,0c0.72,1.2-1.21,2.85-0.44,4.87c0.52,1.37,1.96,2.09,3.54,2.66
		c5.72,2.05,11.52,1.47,12.85,1.33c6.37-0.7,10.76-1.18,14.62-4.43c2.31-1.94,3.12-3.78,6.65-5.76c2.77-1.56,5.26-2.11,5.76-2.22
		c6-1.28,9.33,1.03,11.08-0.89c0.69-0.76,0.62-2.14,0.44-4.87c-0.44-6.97-2.18-8.35-1.33-11.52c0.53-1.95,1.18-1.39,4.43-6.2
		c1.79-2.65,3.4-5.02,4.43-7.97c0.71-2.03,1.6-5.64,0.89-10.63"/>
	<path class="st14" d="M407.19,395.96c-0.3,0.43,0.69,1.05,0.72,2.16c0.03,0.88-0.57,1.59-1.27,2.44c-0.73,0.87-1.04,0.88-1.61,1.55
		c-0.84,1.01-1.06,2.1-1.22,2.88c-0.58,2.88,0.46,5.47,0.72,6.09c0.9,2.1,2.28,3.49,1.99,4.98c-0.03,0.14-0.13,0.62-0.22,1.33
		c-0.11,0.86-0.16,1.28-0.11,1.83c0.03,0.34,0.12,1.17,0.66,1.99c0.48,0.74,1.31,1.45,1.61,1.27c0.08-0.05,0.1-0.15,0.11-0.72
		c0.03-1,0.04-1.5,0-1.77c-0.1-0.69-0.23-0.68-0.33-1.44c-0.01-0.1-0.07-0.55-0.06-1.16c0.03-1.09,0.26-1.28,0.17-1.94
		c-0.06-0.43-0.16-0.4-0.5-1.27c-0.3-0.78-0.32-1.06-0.61-2.05c-0.44-1.48-0.54-1.33-0.72-2.1c-0.2-0.84-0.04-0.87-0.11-3.32
		c-0.03-1.19-0.08-1.68,0-2.6c0.06-0.65,0.15-1.19,0.39-1.77c0.16-0.4,0.34-0.71,0.61-1.11c1.22-1.83,1.75-1.82,2.1-2.82
		c0.04-0.12,0.54-1.6-0.17-2.27c-0.37-0.35-0.97-0.38-1.16-0.39C407.84,395.72,407.37,395.7,407.19,395.96z"/>
	<path class="st14" d="M392.51,412.07c1.12,2.47,2.49,3.59,3.54,4.15c1.1,0.59,1.62,0.45,3.38,1.33c1.41,0.71,2.42,1.48,3.32,2.16
		c1.91,1.45,1.95,1.85,3.27,2.55c1.46,0.77,2.46,0.83,2.44,1.11c-0.03,0.36-1.76,0.65-3.38,0.44c-0.6-0.08-1.13-0.24-2.16-0.55
		c-1-0.31-2.04-0.63-3.43-1.22c-2.03-0.86-3.06-1.3-3.43-2.1c-0.31-0.67-0.12-1.07-0.61-1.66c-0.44-0.52-0.78-0.42-1.77-1
		c-0.79-0.45-1.27-0.91-1.99-1.61c-1.03-0.98-1.2-1.42-1.27-1.66c-0.1-0.33-0.28-0.91,0.06-1.38c0.42-0.58,1.27-0.5,1.33-0.5"/>
	<path class="st14" d="M438.3,409.67L438.3,409.67L438.3,409.67c-0.51,0.33-1.21,0.85-1.92,1.63c-0.27,0.3-1.69,1.89-2.35,4.13
		c-0.65,2.19,0.03,2.94,0,6.05c-0.03,3.52-0.92,3.76-1.51,9.21c-0.45,4.19-0.06,5.19,0.25,5.76c1.2,2.21,4.05,3.15,4.78,2.3
		c0.4-0.47-0.1-1.18-0.5-4.03c-0.19-1.39-0.42-2.99-0.25-4.9c0.15-1.7,0.43-1.66,0.75-4.03c0.18-1.35,0.34-2.54,0.25-4.03
		c-0.17-2.82-1.02-2.99-0.75-4.61c0.38-2.35,2.56-4.38,2.51-4.32l0,0c0.67-1.06,1.34-2.11,2.01-3.17"/>
	<path class="st13" d="M388.69,418.28c0.01-0.02,0.04-0.03,1.37,0.08c1.7,0.13,2.55,0.19,2.84,0.22c1.66,0.15,2.81,0.3,4.58,0.52
		c5.1,0.61,4.74,0.47,5.28,0.63c1.83,0.55,3.25,1.43,5.25,2.67c1.55,0.96,1.53,1.1,2.54,1.65c2.01,1.1,3.75,1.47,5.17,1.77
		c4.81,1.04,7.21,1.56,7.91,1.81c3.89,1.37,7.61,3.68,8.68,4.35c0.04,0.02,0.06,0.04,0.08,0.05c1.15,0.03,2.65,0.12,4.39,0.39
		c4.75,0.74,10.99,2.76,10.84,4.03c-0.17,1.47-9.14,3.52-17.28,0.89c-2.38-0.77-6.97-2.86-16.15-7.05l0,0
		C401.22,424.36,388.47,418.81,388.69,418.28z"/>
	<path class="st15" d="M560.96,457.14c0.93,12.84,1.4,19.27,1.85,20.95c2.21,8.22,3.98,9.02,3.22,12.94c0,0-0.34,1.75-4.99,10.54
		l0,0l0,0c-9.8,2.91-9.89,4.13-9.89,4.14c-0.08,1.13,1.82,2.17,3.25,2.95c0.81,0.44,2.58,1.41,4.73,1.33
		c1.91-0.08,3.43-1.18,6.39-3.4c4.65-3.48,6.97-5.21,7.2-5.46c3.1-3.5,4.77-7.94,5.35-9.46c1.13-3,1.28-4.62,2.92-5.6
		c2.07-1.23,3.84,0.14,5.17-1.03c1.26-1.11,0.52-3.1,0-8.27c-0.55-5.53-0.81-8.41,0.59-11.37c0.86-1.82,1.28-1.43,2.66-3.99
		c1.16-2.17,3.17-5.91,1.92-8.27c-0.44-0.82-1.3-1.55-6.35-2.51c-9.16-1.74-9.64,0.04-18.76-0.74c-1.02-0.09-2.52-0.24-3.7,0.67
		C560.62,452.01,560.81,455.17,560.96,457.14z"/>
	<path class="st16" d="M590.58,452.69c-0.86,0.1-2.19,0.7-4.67,6.94c-1.86,4.66-3.13,9.67-4.36,15.95
		c-0.87,4.44-1.21,6.56-2.03,10.78c-0.46,2.36-0.75,3.77-1.56,5.61c-0.83,1.89-1.89,2.64-1.53,3.49c0.3,0.69,1.17,0.75,4.65,1.39
		c3.34,0.61,4.58,0.92,6.84,0.94c2.55,0.02,3.25-0.35,3.45-0.79c0.15-0.34-0.05-0.58-0.16-2.07c-0.12-1.67,0.05-2.68,0.16-3.99
		c0.01-0.18,0.02-0.26,0.02-0.35c0.15-2.15,0.54-4.89,0.6-6.59c0.04-1.23-0.16-2.39-0.57-4.7c-0.74-4.21-1.31-4.35-1.77-7.56
		c-0.7-4.88,0.3-6.82,0.62-7.38c0.36-0.63,0.79-1.39,1.65-2.13c1.36-1.17,2.46-1.14,3.36-2.33c0.06-0.08,0.7-0.96,0.76-2.04
		C596.18,455.25,592.93,452.4,590.58,452.69z"/>
	<path class="st17" d="M524.08,432.65c0.43,0.32-1.39,3.55-2.9,5.84c-1.44,2.18-4.17,5.91-9.75,10.63c-5.2,4.41-8.11,6.87-13,8.57
		c-4.39,1.52-8.2,1.67-10.93,1.77c-3.27,0.12-5.43-0.23-9.75-0.89c-6.53-0.99-7.4-1.9-7.68-2.66c-0.38-1.04-0.04-2.88-1.47-4.72
		c0,0,0,0,0-0.01l0,0c0,0,2.35,1.65,4.73,2.36c1.43,0.43,1.84,0.21,4.54,0.4c3.05,0.21,4.1,0.6,5.79,0.78
		c3.43,0.36,6.04-0.54,10.04-1.77c4.12-1.27,6.87-2.8,10.34-4.73c2.78-1.55,7.06-3.95,11.81-7.97
		C520.99,435.92,523.6,432.29,524.08,432.65z"/>
	<path class="st18" d="M519.24,446.63c0.76,0.56-0.98,5.5-4.73,8.86c-4.03,3.61-9.59,4.69-10.04,3.84c-0.24-0.46,1.07-1.31,7.09-6.5
		C517.67,447.57,518.8,446.31,519.24,446.63z"/>
	<path class="st14" d="M604.19,436.14c-0.27-0.14-0.94,0.21-2.77,2.68c-2.06,2.39-3.2,4.58-3.87,6.18c-1.36,3.24-2.25,7.56-2.27,7.6
		l0,0c0,0,0.64,3.11,2.26,4.06c1.55,0.91,4.44,0.13,5.35-1.54c0.74-1.36-0.34-2.39-0.47-5.7c-0.04-1.13,0.12-2.24,0.44-4.43
		C603.74,439.07,604.78,436.43,604.19,436.14z"/>
	<ellipse class="st19" cx="501.33" cy="501.91" rx="339.38" ry="349.69"/>
</g>
<g id="Layer_22">
</g>
<g id="Layer_21">
</g>
<g id="snowpants">
</g>
<g id="boots">
</g>
<g id="jacket">
</g>
<g id="mitten">
</g>
<g id="mitten_00000048500081887052301460000001960003464139340212_">
</g>
<g id="neck_shadow">
</g>
<g id="face">
</g>
<g id="hair">
</g>
<g id="board">
</g>
<g id="shadow_on_jacket">
</g>
<g id="shadow">
</g>
<g id="shadow_00000108290032039347494640000015436431733562868122_">
</g>
<g id="shadow_00000153671324073715380120000011071779765541497521_">
</g>
<g id="shadow_00000139979588039114910350000016093346751103490742_">
</g>
<g id="shadow_00000123442452944736596290000013945152868091174553_">
</g>
<g id="speration">
</g>
<g id="LOGO_2">
</g>
</svg>
